<?xml version="1.0" encoding="UTF-8" standalone="no"?>
<!DOCTYPE svg PUBLIC "-//W3C//DTD SVG 1.1//EN"
 "http://www.w3.org/Graphics/SVG/1.1/DTD/svg11.dtd">
<!-- Generated by graphviz version 2.40.1 (20161225.0304)
 -->
<!-- Title: controllers_diagram Pages: 1 -->
<svg width="365pt" height="223pt"
 viewBox="0.00 0.00 365.38 223.00" xmlns="http://www.w3.org/2000/svg" xmlns:xlink="http://www.w3.org/1999/xlink">
<g id="graph0" class="graph" transform="scale(1 1) rotate(0) translate(4 219)">
<title>controllers_diagram</title>
<polygon fill="transparent" stroke="transparent" points="-4,4 -4,-219 361.3755,-219 361.3755,4 -4,4"/>
<!-- _diagram_info -->
<g id="node1" class="node">
<title>_diagram_info</title>
<text text-anchor="start" x="158" y="-73.6" font-family="Times,serif" font-size="13.00" fill="#000000">Controllers diagram</text>
<text text-anchor="start" x="158" y="-60.6" font-family="Times,serif" font-size="13.00" fill="#000000">Date: Mar 31 2017 &#45; 16:39</text>
<text text-anchor="start" x="158" y="-47.6" font-family="Times,serif" font-size="13.00" fill="#000000">Migration version: 20170330120323</text>
<text text-anchor="start" x="158" y="-34.6" font-family="Times,serif" font-size="13.00" fill="#000000">Generated by RailRoady 1.5.2</text>
<text text-anchor="start" x="158" y="-21.6" font-family="Times,serif" font-size="13.00" fill="#000000">http://railroady.prestonlee.com</text>
</g>
<!-- ApplicationController -->
<g id="node2" class="node">
<title>ApplicationController</title>
<path fill="none" stroke="#000000" d="M162,-120.5C162,-120.5 277.6416,-120.5 277.6416,-120.5 283.6416,-120.5 289.6416,-126.5 289.6416,-132.5 289.6416,-132.5 289.6416,-202.5 289.6416,-202.5 289.6416,-208.5 283.6416,-214.5 277.6416,-214.5 277.6416,-214.5 162,-214.5 162,-214.5 156,-214.5 150,-208.5 150,-202.5 150,-202.5 150,-132.5 150,-132.5 150,-126.5 156,-120.5 162,-120.5"/>
<text text-anchor="middle" x="219.8208" y="-199.3" font-family="Times,serif" font-size="14.00" fill="#000000">ApplicationController</text>
<polyline fill="none" stroke="#000000" points="150,-192.5 289.6416,-192.5 "/>
<polyline fill="none" stroke="#000000" points="150,-168.5 289.6416,-168.5 "/>
<polyline fill="none" stroke="#000000" points="150,-144.5 289.6416,-144.5 "/>
</g>
<!-- UsuariosController -->
<g id="node3" class="node">
<title>UsuariosController</title>
<path fill="none" stroke="#000000" d="M12,-.5C12,-.5 111.3174,-.5 111.3174,-.5 117.3174,-.5 123.3174,-6.5 123.3174,-12.5 123.3174,-12.5 123.3174,-148.5 123.3174,-148.5 123.3174,-154.5 117.3174,-160.5 111.3174,-160.5 111.3174,-160.5 12,-160.5 12,-160.5 6,-160.5 0,-154.5 0,-148.5 0,-148.5 0,-12.5 0,-12.5 0,-6.5 6,-.5 12,-.5"/>
<text text-anchor="middle" x="61.6587" y="-145.3" font-family="Times,serif" font-size="14.00" fill="#000000">UsuariosController</text>
<polyline fill="none" stroke="#000000" points="0,-138.5 123.3174,-138.5 "/>
<text text-anchor="start" x="8" y="-123.3" font-family="Times,serif" font-size="14.00" fill="#000000">create</text>
<text text-anchor="start" x="8" y="-109.3" font-family="Times,serif" font-size="14.00" fill="#000000">destroy</text>
<text text-anchor="start" x="8" y="-95.3" font-family="Times,serif" font-size="14.00" fill="#000000">index</text>
<text text-anchor="start" x="8" y="-81.3" font-family="Times,serif" font-size="14.00" fill="#000000">show</text>
<text text-anchor="start" x="8" y="-67.3" font-family="Times,serif" font-size="14.00" fill="#000000">update</text>
<polyline fill="none" stroke="#000000" points="0,-60.5 123.3174,-60.5 "/>
<polyline fill="none" stroke="#000000" points="0,-36.5 123.3174,-36.5 "/>
<text text-anchor="start" x="8" y="-21.3" font-family="Times,serif" font-size="14.00" fill="#000000">set_usuario</text>
<text text-anchor="start" x="8" y="-7.3" font-family="Times,serif" font-size="14.00" fill="#000000">usuario_params</text>
</g>
</g>
</svg>
