<?xml version="1.0" encoding="UTF-8" standalone="no"?>
<!DOCTYPE svg PUBLIC "-//W3C//DTD SVG 1.1//EN"
 "http://www.w3.org/Graphics/SVG/1.1/DTD/svg11.dtd">
<!-- Generated by graphviz version 2.40.1 (20161225.0304)
 -->
<!-- Title: models_diagram Pages: 1 -->
<svg width="572pt" height="109pt"
 viewBox="0.00 0.00 571.71 109.00" xmlns="http://www.w3.org/2000/svg" xmlns:xlink="http://www.w3.org/1999/xlink">
<g id="graph0" class="graph" transform="scale(1 1) rotate(0) translate(4 105)">
<title>models_diagram</title>
<polygon fill="transparent" stroke="transparent" points="-4,4 -4,-105 567.7053,-105 567.7053,4 -4,4"/>
<!-- _diagram_info -->
<g id="node1" class="node">
<title>_diagram_info</title>
<text text-anchor="start" x="8" y="-72.6" font-family="Times,serif" font-size="13.00" fill="#000000">Models diagram</text>
<text text-anchor="start" x="8" y="-59.6" font-family="Times,serif" font-size="13.00" fill="#000000">Date: Mar 31 2017 &#45; 16:39</text>
<text text-anchor="start" x="8" y="-46.6" font-family="Times,serif" font-size="13.00" fill="#000000">Migration version: 20170330120323</text>
<text text-anchor="start" x="8" y="-33.6" font-family="Times,serif" font-size="13.00" fill="#000000">Generated by RailRoady 1.5.2</text>
<text text-anchor="start" x="8" y="-20.6" font-family="Times,serif" font-size="13.00" fill="#000000">http://railroady.prestonlee.com</text>
</g>
<!-- ApplicationRecord -->
<g id="node2" class="node">
<title>ApplicationRecord</title>
<ellipse fill="none" stroke="#000000" cx="302.6877" cy="-50.5" rx="77.2916" ry="18"/>
<text text-anchor="middle" x="302.6877" y="-46.3" font-family="Times,serif" font-size="14.00" fill="#000000">ApplicationRecord</text>
</g>
<!-- Usuario -->
<g id="node3" class="node">
<title>Usuario</title>
<path fill="none" stroke="#000000" d="M409.6702,-.5C409.6702,-.5 551.7053,-.5 551.7053,-.5 557.7053,-.5 563.7053,-6.5 563.7053,-12.5 563.7053,-12.5 563.7053,-88.5 563.7053,-88.5 563.7053,-94.5 557.7053,-100.5 551.7053,-100.5 551.7053,-100.5 409.6702,-100.5 409.6702,-100.5 403.6702,-100.5 397.6702,-94.5 397.6702,-88.5 397.6702,-88.5 397.6702,-12.5 397.6702,-12.5 397.6702,-6.5 403.6702,-.5 409.6702,-.5"/>
<text text-anchor="middle" x="480.6877" y="-85.3" font-family="Times,serif" font-size="14.00" fill="#000000">Usuario</text>
<polyline fill="none" stroke="#000000" points="397.6702,-78.5 563.7053,-78.5 "/>
<text text-anchor="start" x="405.6702" y="-63.3" font-family="Times,serif" font-size="14.00" fill="#000000">id :integer</text>
<text text-anchor="start" x="405.6702" y="-49.3" font-family="Times,serif" font-size="14.00" fill="#000000">usuario :character varying</text>
<text text-anchor="start" x="405.6702" y="-35.3" font-family="Times,serif" font-size="14.00" fill="#000000">nombre :character varying</text>
<text text-anchor="start" x="405.6702" y="-21.3" font-family="Times,serif" font-size="14.00" fill="#000000">apellido :character varying</text>
<text text-anchor="start" x="405.6702" y="-7.3" font-family="Times,serif" font-size="14.00" fill="#000000">twitter :character varying</text>
</g>
</g>
</svg>
